<svg width="24" height="24" viewBox="0 0 24 24" fill="none" xmlns="http://www.w3.org/2000/svg">
<path d="M20.0066 4.58962C19.518 4.08512 18.9377 3.68492 18.2991 3.41187C17.6605 3.13883 16.976 2.99829 16.2847 2.99829C15.5934 2.99829 14.9089 3.13883 14.2703 3.41187C13.6317 3.68492 13.0515 4.08512 12.5628 4.58962L11.5486 5.63614L10.5344 4.58962C9.54725 3.57105 8.20843 2.99882 6.81244 2.99882C5.41644 2.99882 4.07762 3.57105 3.0905 4.58962C2.10339 5.6082 1.54883 6.98968 1.54883 8.43016C1.54883 9.87064 2.10339 11.2521 3.0905 12.2707L4.10471 13.3172L11.5486 20.9983L18.9924 13.3172L20.0066 12.2707C20.4956 11.7664 20.8834 11.1677 21.148 10.5087C21.4126 9.84977 21.5488 9.14346 21.5488 8.43016C21.5488 7.71686 21.4126 7.01055 21.148 6.35157C20.8834 5.6926 20.4956 5.09388 20.0066 4.58962Z" stroke="white" stroke-width="1.5" stroke-linecap="round" stroke-linejoin="round"/>
</svg>
