<svg width="30" height="30" viewBox="0 0 30 30" fill="none" xmlns="http://www.w3.org/2000/svg">
<g clip-path="url(#clip0_106_5375)">
<path d="M30 15.0722C30 6.74807 23.2843 0 15 0C6.71572 0 0 6.74807 0 15.0722C0 22.5952 5.48526 28.8307 12.6562 29.9613V19.429H8.84766V15.0722H12.6562V11.7516C12.6562 7.97415 14.8957 5.88758 18.322 5.88758C19.9626 5.88758 21.6797 6.18197 21.6797 6.18197V9.89115H19.7884C17.925 9.89115 17.3438 11.0531 17.3438 12.2462V15.0722H21.504L20.8389 19.429H17.3438V29.9613C24.5147 28.8307 30 22.5952 30 15.0722Z" fill="#4B69B1"/>
</g>
<defs>
<clipPath id="clip0_106_5375">
<rect width="30" height="30" fill="white"/>
</clipPath>
</defs>
</svg>
