<svg width="30" height="30" viewBox="0 0 30 30" fill="none" xmlns="http://www.w3.org/2000/svg">
<path d="M15 2.57133C19.0078 2.57133 19.4824 2.58805 21.0587 2.655C22.5234 2.71634 23.3145 2.95061 23.8417 3.14583C24.5391 3.40241 25.0431 3.71476 25.5645 4.21118C26.0918 4.71317 26.4141 5.18728 26.6837 5.85103C26.8886 6.35302 27.1348 7.11159 27.1993 8.50044C27.2696 10.0064 27.2871 10.4582 27.2871 14.2678C27.2871 18.0829 27.2696 18.5348 27.1993 20.0351C27.1348 21.4296 26.8886 22.1826 26.6837 22.6846C26.4141 23.3484 26.0859 23.8281 25.5645 24.3245C25.0371 24.8264 24.5391 25.1332 23.8417 25.3898C23.3145 25.5849 22.5176 25.8193 21.0587 25.8805C19.4766 25.9475 19.002 25.9642 15 25.9642C10.9922 25.9642 10.5176 25.9475 8.94141 25.8805C7.47656 25.8193 6.68556 25.5849 6.15821 25.3898C5.46094 25.1332 4.95703 24.8209 4.43556 24.3245C3.90821 23.8224 3.58594 23.3484 3.31641 22.6846C3.11134 22.1826 2.86524 21.4239 2.80078 20.0351C2.73047 18.5291 2.7129 18.0774 2.7129 14.2678C2.7129 10.4526 2.73047 10.0008 2.80078 8.50044C2.86524 7.106 3.11134 6.35302 3.31641 5.85103C3.58594 5.18728 3.91406 4.7076 4.43556 4.21118C4.9629 3.70918 5.46094 3.40241 6.15821 3.14583C6.68556 2.95061 7.48243 2.71634 8.94141 2.655C10.5176 2.58805 10.9922 2.57133 15 2.57133ZM15 0C10.9277 0 10.418 0.0167332 8.81837 0.0836657C7.22462 0.150598 6.12891 0.396017 5.17969 0.747414C4.18946 1.11554 3.35156 1.6008 2.51953 2.39842C1.68164 3.19045 1.17188 3.98807 0.785156 4.92513C0.416016 5.83429 0.158203 6.87175 0.0878906 8.38888C0.0175781 9.91718 0 10.4024 0 14.279C0 18.1555 0.0175781 18.6407 0.0878906 20.1635C0.158203 21.6805 0.416016 22.7236 0.785156 23.6272C1.17188 24.5698 1.68164 25.3675 2.51953 26.1595C3.35156 26.9515 4.18946 27.4424 5.17384 27.8049C6.12891 28.1563 7.21875 28.4018 8.8125 28.4687C10.4121 28.5355 10.9219 28.5523 14.9942 28.5523C19.0665 28.5523 19.5761 28.5355 21.1759 28.4687C22.7696 28.4018 23.8652 28.1563 24.8145 27.8049C25.7989 27.4424 26.6368 26.9515 27.4688 26.1595C28.3009 25.3675 28.8165 24.5698 29.1973 23.6327C29.5665 22.7236 29.8243 21.6862 29.8946 20.169C29.9649 18.6463 29.9824 18.1611 29.9824 14.2845C29.9824 10.408 29.9649 9.92275 29.8946 8.40005C29.8243 6.8829 29.5665 5.83986 29.1973 4.93628C28.8281 3.98807 28.3183 3.19045 27.4806 2.39842C26.6484 1.60639 25.8105 1.11554 24.8261 0.752992C23.8712 0.401596 22.7812 0.156176 21.1875 0.0892435C19.5821 0.0167332 19.0723 0 15 0Z" fill="#BF3775"/>
<path d="M15 6.94434C10.7461 6.94434 7.29492 10.2296 7.29492 14.279C7.29492 18.3285 10.7461 21.6137 15 21.6137C19.2538 21.6137 22.7051 18.3285 22.7051 14.279C22.7051 10.2296 19.2538 6.94434 15 6.94434ZM15 19.0368C12.2402 19.0368 10.002 16.9062 10.002 14.279C10.002 11.6519 12.2402 9.52124 15 9.52124C17.7598 9.52124 19.998 11.6519 19.998 14.279C19.998 16.9062 17.7598 19.0368 15 19.0368Z" fill="#BF3775"/>
<path d="M24.8087 6.65474C24.8087 7.60296 24 8.3671 23.0098 8.3671C22.0136 8.3671 21.2109 7.59738 21.2109 6.65474C21.2109 5.70653 22.0196 4.94238 23.0098 4.94238C24 4.94238 24.8087 5.7121 24.8087 6.65474Z" fill="#BF3775"/>
</svg>
