<svg width="24" height="24" viewBox="0 0 24 24" fill="none" xmlns="http://www.w3.org/2000/svg">
<path d="M15.75 22.5C14.5634 22.5 13.4033 22.1481 12.4166 21.4889C11.4299 20.8295 10.6609 19.8925 10.2068 18.7961C9.75264 17.6998 9.63376 16.4933 9.86529 15.3295C10.0968 14.1656 10.6682 13.0965 11.5073 12.2573C12.3465 11.4182 13.4156 10.8468 14.5795 10.6153C15.7433 10.3838 16.9498 10.5026 18.0461 10.9568C19.1425 11.4109 20.0795 12.1799 20.7389 13.1666C21.3981 14.1533 21.75 15.3134 21.75 16.5C21.75 18.0913 21.1178 19.6175 19.9927 20.7427C18.8675 21.8678 17.3413 22.5 15.75 22.5ZM15.75 12C14.86 12 13.99 12.2639 13.25 12.7584C12.5099 13.2529 11.9332 13.9556 11.5925 14.7779C11.252 15.6002 11.1629 16.505 11.3365 17.3779C11.5101 18.2508 11.9387 19.0526 12.5681 19.682C13.1974 20.3114 13.9992 20.7399 14.8721 20.9135C15.745 21.0872 16.6498 20.9981 17.4721 20.6575C18.2944 20.3169 18.9971 19.7401 19.4916 19.0001C19.9861 18.26 20.25 17.39 20.25 16.5C20.25 15.3065 19.7759 14.162 18.932 13.3181C18.0881 12.4741 16.9435 12 15.75 12Z" fill="red"/>
<path d="M16.9425 18.75L15 16.8075V13.5H16.5V16.1925L18 17.6925L16.9425 18.75Z" fill="red"/>
<path d="M21 4.5C21 4.10218 20.842 3.72065 20.5606 3.43934C20.2793 3.15803 19.8978 3 19.5 3H16.5V1.5H15V3H9V1.5H7.5V3H4.5C4.10218 3 3.72065 3.15803 3.43934 3.43934C3.15803 3.72065 3 4.10218 3 4.5V19.5C3 19.8978 3.15803 20.2793 3.43934 20.5606C3.72065 20.842 4.10218 21 4.5 21H7.5V19.5H4.5V4.5H7.5V6H9V4.5H15V6H16.5V4.5H19.5V9H21V4.5Z" fill="red"/>
</svg>
