<svg width="24" height="24" viewBox="0 0 24 24" fill="none" xmlns="http://www.w3.org/2000/svg">
<g clip-path="url(#clip0_315_884)">
<path d="M6.10492 7.19434L4.02565 7.35626C3.44708 7.40133 2.93179 7.70699 2.61182 8.19482L0.213854 11.8505C-0.0288162 12.2205 -0.067394 12.6835 0.110589 13.0891C0.288619 13.4946 0.654475 13.7772 1.08924 13.8451L2.99305 14.1423C3.43841 11.7601 4.50452 9.38368 6.10492 7.19434Z" fill="#E30613"/>
<path d="M10.625 21.8349L10.9199 23.7539C10.9872 24.1922 11.2677 24.5609 11.67 24.7403C11.8374 24.815 12.0146 24.8518 12.1908 24.8518C12.4385 24.8518 12.6844 24.7791 12.8987 24.6362L16.5256 22.2192C17.0096 21.8967 17.3128 21.3771 17.3575 20.7941L17.5181 18.6982C15.346 20.3114 12.9885 21.3861 10.625 21.8349Z" fill="#E30613"/>
<path d="M9.90948 20.5054C9.97557 20.5054 10.042 20.4999 10.1084 20.4888C11.0985 20.3219 12.0529 20.0407 12.9633 19.6728L5.13853 11.7856C4.77347 12.7033 4.49456 13.6652 4.329 14.6633C4.26375 15.0568 4.39467 15.4576 4.67447 15.7397L9.04056 20.1405C9.27287 20.3747 9.58642 20.5054 9.90948 20.5054Z" fill="#E30613"/>
<path d="M22.0865 11.3871C24.0013 7.65572 24.0722 3.71257 23.9721 1.86328C23.9379 1.22964 23.4367 0.724461 22.808 0.689922C22.5093 0.67348 22.1552 0.661621 21.7562 0.661621C19.7047 0.661621 16.4586 0.974829 13.3595 2.59057C10.8966 3.87464 7.66708 6.70201 5.76172 10.4177C5.78422 10.4354 5.8062 10.4542 5.82692 10.4751L14.2644 18.9798C14.2851 19.0006 14.3037 19.0228 14.3213 19.0455C18.0076 17.1249 20.8126 13.8696 22.0865 11.3871ZM13.9547 5.77576C15.3254 4.39418 17.5557 4.39403 18.9265 5.77576C19.5905 6.44504 19.9562 7.33496 19.9562 8.28148C19.9562 9.228 19.5905 10.1179 18.9265 10.7872C18.2412 11.4779 17.3407 11.8233 16.4406 11.8234C15.5402 11.8235 14.6402 11.4781 13.9547 10.7872C13.2907 10.1179 12.925 9.228 12.925 8.28148C12.925 7.33496 13.2907 6.44504 13.9547 5.77576Z" fill="#232536"/>
<path d="M0.716821 20.5971C0.896774 20.5971 1.07673 20.5279 1.21398 20.3895L3.50959 18.0756C3.78418 17.7988 3.78418 17.35 3.50959 17.0733C3.23504 16.7965 2.78982 16.7965 2.51523 17.0733L0.219617 19.3873C-0.0549765 19.664 -0.0549765 20.1127 0.219617 20.3895C0.356914 20.5279 0.536867 20.5971 0.716821 20.5971Z" fill="#E30613"/>
<path d="M5.61382 19.1935C5.33927 18.9166 4.89405 18.9166 4.61946 19.1935L0.205945 23.6421C-0.0686484 23.919 -0.0686484 24.3677 0.205945 24.6444C0.343242 24.7829 0.523195 24.8519 0.703148 24.8519C0.883102 24.8519 1.06305 24.7829 1.2003 24.6444L5.61377 20.1957C5.88841 19.9189 5.88841 19.4703 5.61382 19.1935Z" fill="#E30613"/>
<path d="M6.72221 21.3155L4.42665 23.6293C4.15205 23.9061 4.15205 24.3549 4.42665 24.6316C4.56395 24.7701 4.7439 24.8393 4.9238 24.8393C5.10371 24.8393 5.28371 24.7701 5.42096 24.6316L7.71657 22.3178C7.99116 22.0409 7.99116 21.5922 7.71657 21.3155C7.44202 21.0387 6.9968 21.0387 6.72221 21.3155Z" fill="#E30613"/>
</g>
<defs>
<clipPath id="clip0_315_884">
<rect width="24" height="24" fill="white"/>
</clipPath>
</defs>
</svg>
