<svg width="24" height="24" viewBox="0 0 24 24" fill="none" xmlns="http://www.w3.org/2000/svg">
<path d="M14.004 10.2452C13.909 10.2445 13.8174 10.2815 13.7496 10.3481C13.6817 10.4146 13.6429 10.5053 13.6416 10.6004V13.2548C13.6429 13.3501 13.6818 13.4409 13.75 13.5075C13.8182 13.5741 13.9099 13.6109 14.0052 13.61H22.0008C22.0961 13.6109 22.1878 13.5741 22.256 13.5075C22.3242 13.4409 22.3631 13.3501 22.3644 13.2548V10.6004C22.3631 10.5051 22.3242 10.4142 22.256 10.3477C22.1878 10.2811 22.0961 10.2442 22.0008 10.2452H14.0052H14.004ZM18.9072 1.80198C20.0136 1.85478 20.8092 2.07318 21.3132 2.53638C21.8112 2.99478 22.0668 3.65838 22.1172 4.53678V7.05318C22.1146 7.26749 22.0272 7.47202 21.8739 7.62187C21.7207 7.77172 21.5143 7.85462 21.3 7.85238C21.1938 7.85365 21.0884 7.83398 20.9898 7.7945C20.8911 7.75503 20.8013 7.69651 20.7253 7.62229C20.6493 7.54808 20.5886 7.45962 20.5468 7.36197C20.505 7.26433 20.4829 7.1594 20.4816 7.05318L20.4828 4.58238C20.4564 4.12638 20.3472 3.84318 20.1912 3.69918C20.04 3.55998 19.5792 3.43518 18.8676 3.39918H3.1764C2.532 3.42318 2.1132 3.54558 1.9104 3.71958C1.7544 3.85278 1.6368 4.21998 1.6356 4.85478L1.632 18.9788C1.692 19.5956 1.8276 20.0072 2.0016 20.2124C2.1336 20.3684 2.5428 20.5244 3.1452 20.6012H18.8844C19.6212 20.6156 20.0556 20.5052 20.202 20.3576C20.364 20.1932 20.4816 19.7612 20.4816 19.0544V16.6004C20.4816 16.16 20.8476 15.8012 21.3 15.8012C21.7512 15.8012 22.1172 16.16 22.1172 16.6004V19.0544C22.1172 20.1344 21.8964 20.942 21.3792 21.4664C20.8464 22.0064 19.9992 22.2224 18.8676 22.1984L3.048 22.1948C1.9716 22.07 1.2 21.7748 0.7404 21.2312C0.324 20.7392 0.0924 20.0372 0 19.0556V4.85358C0.0024 3.80238 0.2544 3.01158 0.8328 2.51718C1.3632 2.06118 2.1288 1.83918 3.1452 1.80078H18.9072V1.80198ZM22.0008 8.64678C23.1048 8.64678 24 9.52158 24 10.6004V13.2548C24 14.3336 23.1048 15.2084 22.0008 15.2084H14.0052C12.9012 15.2084 12.006 14.3324 12.006 13.2548V10.6004C12.006 9.52158 12.9012 8.64678 14.0052 8.64678H22.0008ZM16.0044 10.9748C15.4524 10.9748 15.0048 11.4068 15.0048 11.9384C15.0048 12.4712 15.4524 12.902 16.0044 12.902C16.5564 12.902 17.004 12.47 17.004 11.9384C17.004 11.4056 16.5564 10.9736 16.0044 10.9736V10.9748Z" fill="white"/>
</svg>
