<svg width="24" height="26" viewBox="0 0 24 26" fill="none" xmlns="http://www.w3.org/2000/svg">
<path d="M12 14.7923C12.5523 14.7923 13 14.3433 13 13.7893C13 13.2354 12.5523 12.7864 12 12.7864C11.4477 12.7864 11 13.2354 11 13.7893C11 14.3433 11.4477 14.7923 12 14.7923Z" stroke="white" stroke-width="2" stroke-linecap="round" stroke-linejoin="round"/>
<path d="M19 14.7923C19.5523 14.7923 20 14.3433 20 13.7893C20 13.2354 19.5523 12.7864 19 12.7864C18.4477 12.7864 18 13.2354 18 13.7893C18 14.3433 18.4477 14.7923 19 14.7923Z" stroke="white" stroke-width="2" stroke-linecap="round" stroke-linejoin="round"/>
<path d="M5 14.7923C5.55228 14.7923 6 14.3433 6 13.7893C6 13.2354 5.55228 12.7864 5 12.7864C4.44772 12.7864 4 13.2354 4 13.7893C4 14.3433 4.44772 14.7923 5 14.7923Z" stroke="white" stroke-width="2" stroke-linecap="round" stroke-linejoin="round"/>
<circle cx="12" cy="12" r="11.5" stroke="white"/>
</svg>
