<svg width="24" height="24" viewBox="0 0 24 24" fill="none" xmlns="http://www.w3.org/2000/svg">
<g clip-path="url(#clip0_106_5836)">
<path d="M16.9991 4.00036H19.6691C20.235 3.99035 20.785 4.1885 21.2145 4.55718C21.644 4.92586 21.9232 5.43942 21.9991 6.00036V13.0004C21.9232 13.5613 21.644 14.0749 21.2145 14.4435C20.785 14.8122 20.235 15.0104 19.6691 15.0004H16.9991M9.99905 17.0004V21.0004C9.99905 21.796 10.3151 22.5591 10.8777 23.1217C11.4403 23.6843 12.2034 24.0004 12.9991 24.0004L16.9991 15.0004V4.00036H5.71905C5.23673 3.99491 4.76868 4.16396 4.40115 4.47636C4.03362 4.78875 3.79138 5.22346 3.71905 5.70036L2.33905 14.7004C2.29555 14.987 2.31488 15.2797 2.39571 15.5581C2.47655 15.8365 2.61695 16.0941 2.8072 16.3128C2.99744 16.5316 3.23297 16.7064 3.49748 16.8251C3.76199 16.9439 4.04915 17.0036 4.33905 17.0004H9.99905Z" stroke="white" stroke-width="1.5" stroke-linecap="round" stroke-linejoin="round"/>
</g>
<defs>
<clipPath id="clip0_106_5836">
<rect width="24" height="24" fill="white"/>
</clipPath>
</defs>
</svg>
