<svg width="30" height="30" viewBox="0 0 30 30" fill="none" xmlns="http://www.w3.org/2000/svg">
<path d="M9.4377 28.9694C20.7557 28.9694 26.9479 18.3672 26.9479 9.1757C26.9479 8.87764 26.9421 8.57297 26.9303 8.27491C28.1347 7.29017 29.1744 6.07044 30 4.67302C28.8782 5.23725 27.687 5.60574 26.4673 5.7659C27.7517 4.89572 28.7132 3.52871 29.1739 1.9183C27.9656 2.72766 26.6445 3.2986 25.2668 3.60662C24.3386 2.49168 23.1112 1.75346 21.7746 1.50609C20.4381 1.25872 19.0665 1.51598 17.8722 2.23809C16.6779 2.96021 15.7273 4.10697 15.1673 5.50107C14.6074 6.89517 14.4693 8.45895 14.7744 9.95065C12.3281 9.81188 9.93491 9.09352 7.74997 7.84215C5.56504 6.59076 3.63713 4.8343 2.09121 2.68663C1.3055 4.21795 1.06507 6.03001 1.41879 7.75453C1.77251 9.47904 2.69383 10.9866 3.99551 11.9708C3.01828 11.9358 2.06246 11.6383 1.20703 11.1031V11.1892C1.20616 12.7963 1.69762 14.354 2.59789 15.5977C3.49815 16.8415 4.75166 17.6944 6.14531 18.0115C5.24006 18.2915 4.28998 18.3323 3.36855 18.1308C3.76181 19.5127 4.52696 20.7215 5.55722 21.5884C6.58746 22.4552 7.83141 22.9368 9.11543 22.9659C6.93553 24.9016 4.24271 25.9514 1.4707 25.9465C0.979108 25.9456 0.487999 25.9115 0 25.8445C2.81606 27.8868 6.09191 28.9715 9.4377 28.9694Z" fill="white"/>
</svg>
