<svg width="30" height="30" viewBox="0 0 30 30" fill="none" xmlns="http://www.w3.org/2000/svg">
<path d="M9.4377 28.9689C20.7557 28.9689 26.9479 18.3668 26.9479 9.17521C26.9479 8.87715 26.9421 8.57248 26.9303 8.27442C28.1347 7.28968 29.1744 6.06995 30 4.67253C28.8782 5.23676 27.687 5.60525 26.4673 5.76541C27.7517 4.89524 28.7132 3.52822 29.1739 1.91781C27.9656 2.72717 26.6445 3.29811 25.2668 3.60614C24.3386 2.4912 23.1112 1.75297 21.7746 1.5056C20.4381 1.25823 19.0665 1.51549 17.8722 2.23761C16.6779 2.95972 15.7273 4.10648 15.1673 5.50058C14.6074 6.89468 14.4693 8.45846 14.7744 9.95016C12.3281 9.81139 9.93491 9.09303 7.74997 7.84166C5.56504 6.59027 3.63713 4.83381 2.09121 2.68614C1.3055 4.21747 1.06507 6.02952 1.41879 7.75404C1.77251 9.47855 2.69383 10.9861 3.99551 11.9703C3.01828 11.9353 2.06246 11.6379 1.20703 11.1027V11.1888C1.20616 12.7958 1.69762 14.3535 2.59789 15.5973C3.49815 16.841 4.75166 17.6939 6.14531 18.011C5.24006 18.291 4.28998 18.3318 3.36855 18.1303C3.76181 19.5122 4.52696 20.721 5.55722 21.5879C6.58746 22.4547 7.83141 22.9363 9.11543 22.9654C6.93553 24.9011 4.24271 25.9509 1.4707 25.946C0.979108 25.9451 0.487999 25.911 0 25.844C2.81606 27.8863 6.09191 28.971 9.4377 28.9689Z" fill="#38B0E2"/>
</svg>
