<svg width="9" height="12" viewBox="0 0 9 12" fill="none" xmlns="http://www.w3.org/2000/svg">
<path d="M2.5 3.2135C2.63261 3.2135 2.75978 3.16293 2.85356 3.07291C2.94732 2.98289 3 2.86081 3 2.7335C3 2.60619 2.94732 2.48411 2.85356 2.39408C2.75978 2.30407 2.63261 2.2535 2.5 2.2535C2.36739 2.2535 2.24022 2.30407 2.14644 2.39408C2.05268 2.48411 2 2.60619 2 2.7335C2 2.86081 2.05268 2.98289 2.14644 3.07291C2.24022 3.16293 2.36739 3.2135 2.5 3.2135ZM3 5.13349C3 5.26079 2.94732 5.3829 2.85356 5.47288C2.75978 5.56293 2.63261 5.61349 2.5 5.61349C2.36739 5.61349 2.24022 5.56293 2.14644 5.47288C2.05268 5.3829 2 5.26079 2 5.13349C2 5.00619 2.05268 4.88408 2.14644 4.7941C2.24022 4.70405 2.36739 4.65349 2.5 4.65349C2.63261 4.65349 2.75978 4.70405 2.85356 4.7941C2.94732 4.88408 3 5.00619 3 5.13349ZM2.5 8.01349C2.63261 8.01349 2.75978 7.96293 2.85356 7.87288C2.94732 7.7829 3 7.66079 3 7.53349C3 7.40619 2.94732 7.28408 2.85356 7.1941C2.75978 7.10405 2.63261 7.05349 2.5 7.05349C2.36739 7.05349 2.24022 7.10405 2.14644 7.1941C2.05268 7.28408 2 7.40619 2 7.53349C2 7.66079 2.05268 7.7829 2.14644 7.87288C2.24022 7.96293 2.36739 8.01349 2.5 8.01349ZM5 2.7335C5 2.86081 4.94735 2.98289 4.85353 3.07291C4.75978 3.16293 4.63258 3.2135 4.5 3.2135C4.36742 3.2135 4.24022 3.16293 4.14647 3.07291C4.05265 2.98289 4 2.86081 4 2.7335C4 2.60619 4.05265 2.48411 4.14647 2.39408C4.24022 2.30407 4.36742 2.2535 4.5 2.2535C4.63258 2.2535 4.75978 2.30407 4.85353 2.39408C4.94735 2.48411 5 2.60619 5 2.7335ZM4.5 5.61349C4.63258 5.61349 4.75978 5.56293 4.85353 5.47288C4.94735 5.3829 5 5.26079 5 5.13349C5 5.00619 4.94735 4.88408 4.85353 4.7941C4.75978 4.70405 4.63258 4.65349 4.5 4.65349C4.36742 4.65349 4.24022 4.70405 4.14647 4.7941C4.05265 4.88408 4 5.00619 4 5.13349C4 5.26079 4.05265 5.3829 4.14647 5.47288C4.24022 5.56293 4.36742 5.61349 4.5 5.61349ZM5 7.53349C5 7.66079 4.94735 7.7829 4.85353 7.87288C4.75978 7.96293 4.63258 8.01349 4.5 8.01349C4.36742 8.01349 4.24022 7.96293 4.14647 7.87288C4.05265 7.7829 4 7.66079 4 7.53349C4 7.40619 4.05265 7.28408 4.14647 7.1941C4.24022 7.10405 4.36742 7.05349 4.5 7.05349C4.63258 7.05349 4.75978 7.10405 4.85353 7.1941C4.94735 7.28408 5 7.40619 5 7.53349ZM6.5 8.01349C6.63258 8.01349 6.75978 7.96293 6.85353 7.87288C6.94735 7.7829 7 7.66079 7 7.53349C7 7.40619 6.94735 7.28408 6.85353 7.1941C6.75978 7.10405 6.63258 7.05349 6.5 7.05349C6.36742 7.05349 6.24022 7.10405 6.14647 7.1941C6.05265 7.28408 6 7.40619 6 7.53349C6 7.66079 6.05265 7.7829 6.14647 7.87288C6.24022 7.96293 6.36742 8.01349 6.5 8.01349ZM1.5 0.333496C1.10217 0.333496 0.720647 0.485215 0.439338 0.755263C0.158037 1.02532 0 1.39159 0 1.7735V11.3735C0 11.5008 0.0526765 11.6229 0.146444 11.7129C0.240218 11.8029 0.367389 11.8535 0.5 11.8535H8.5C8.63258 11.8535 8.75978 11.8029 8.85353 11.7129C8.94734 11.6229 9 11.5008 9 11.3735V6.57349C9 6.1916 8.84196 5.82533 8.56066 5.55525C8.27935 5.28523 7.89782 5.13349 7.5 5.13349H7V1.7735C7 1.39159 6.84196 1.02532 6.56065 0.755263C6.27935 0.485215 5.89782 0.333496 5.5 0.333496H1.5ZM1 1.7735C1 1.64619 1.05268 1.52411 1.14644 1.43408C1.24022 1.34407 1.36739 1.2935 1.5 1.2935H5.5C5.63258 1.2935 5.75978 1.34407 5.85353 1.43408C5.94735 1.52411 6 1.64619 6 1.7735V5.61349C6 5.74079 6.05265 5.8629 6.14647 5.95288C6.24022 6.04293 6.36742 6.09349 6.5 6.09349H7.5C7.63258 6.09349 7.75978 6.14405 7.85353 6.2341C7.94735 6.32408 8 6.44619 8 6.57349V10.8935H7V9.45349C7 9.32619 6.94735 9.20408 6.85353 9.1141C6.75978 9.02405 6.63258 8.97349 6.5 8.97349H2.5C2.36739 8.97349 2.24022 9.02405 2.14644 9.1141C2.05268 9.20408 2 9.32619 2 9.45349V10.8935H1V1.7735ZM6 9.93349V10.8935H5.00298V9.93349H6ZM4.00298 9.93349V10.8935H3V9.93349H4.00298Z" fill="#19A0DD"/>
</svg>
