<svg width="30" height="30" viewBox="0 0 30 30" fill="none" xmlns="http://www.w3.org/2000/svg">
<path d="M27.7793 0H2.21484C0.990234 0 0 0.920323 0 2.05817V26.4941C0 27.6321 0.990234 28.5579 2.21484 28.5579H27.7793C29.004 28.5579 30 27.632 30 26.4998V2.05817C30 0.920323 29.004 0 27.7793 0ZM8.90038 24.3355H4.44728V10.7036H8.90038V24.3355ZM6.67384 8.84626C5.24415 8.84626 4.08984 7.74745 4.08984 6.39207C4.08984 5.03668 5.24415 3.93786 6.67384 3.93786C8.09766 3.93786 9.25194 5.03668 9.25194 6.39207C9.25194 7.74186 8.09766 8.84626 6.67384 8.84626ZM25.5645 24.3355H21.1172V17.7093C21.1172 16.1307 21.0879 14.0949 18.8027 14.0949C16.4883 14.0949 16.1367 15.8184 16.1367 17.5977V24.3355H11.6953V10.7036H15.9609V12.5666H16.0195C16.6113 11.4957 18.0645 10.3634 20.2266 10.3634C24.7324 10.3634 25.5645 13.1857 25.5645 16.8559V24.3355Z" fill="white"/>
</svg>
