<svg width="156" height="48" viewBox="0 0 156 48" fill="none" xmlns="http://www.w3.org/2000/svg">
<path d="M6.5503 41.4699C12.5363 43.8525 18.9277 45.0513 25.3703 44.9999C31.816 45.0503 38.2104 43.8515 44.2003 41.4699C46.7377 35.9302 48.0346 29.9031 48.0003 23.8099C48.0345 17.7136 46.7376 11.6833 44.2003 6.13995C38.2098 3.76178 31.8153 2.56644 25.3703 2.61995C18.9283 2.56545 12.537 3.76086 6.5503 6.13995C4.0267 11.6864 2.74353 17.7166 2.7903 23.8099C2.74338 29.9001 4.02659 35.9271 6.5503 41.4699Z" fill="#E30613"/>
<path d="M25.37 47.61C31.0292 45.4823 36.2044 42.2418 40.59 38.08C44.9384 34.0893 48.3969 29.227 50.74 23.81C48.3981 18.3894 44.9395 13.5236 40.59 9.53C36.2019 5.37145 31.0274 2.13138 25.37 0C19.7158 2.13184 14.5446 5.37193 10.16 9.53C5.80526 13.5212 2.34298 18.3875 0 23.81C2.34341 29.2294 5.80573 34.0923 10.16 38.08C14.542 42.2415 19.7139 45.482 25.37 47.61Z" fill="#F8A91B"/>
<path d="M44.5002 23.81C44.5002 33.72 35.9402 41.81 25.3702 41.81C14.8002 41.81 6.24023 33.81 6.24023 23.86C6.24023 13.91 14.8102 5.85999 25.3702 5.85999C35.9302 5.85999 44.5002 13.86 44.5002 23.86" fill="white"/>
<path d="M42.2501 23.81C42.2501 32.31 34.9001 39.21 25.8301 39.21C16.7601 39.21 9.41016 32.31 9.41016 23.81C9.41016 15.31 16.7601 8.40002 25.8301 8.40002C34.9001 8.40002 42.2501 15.3 42.2501 23.81Z" fill="white"/>
<path d="M32.5801 36.05C29.0901 38.54 23.1401 37.1 17.3701 32.92C17.9757 32.6902 18.6445 32.6902 19.2501 32.92C21.2994 33.778 23.5275 34.1213 25.7401 33.92C25.3453 33.1087 25.2554 32.1826 25.4867 31.3106C25.718 30.4386 26.2551 29.6789 27.0001 29.17C27.7708 28.6275 28.6961 28.3481 29.6383 28.3733C30.5805 28.3985 31.4894 28.727 32.2301 29.31C33.0187 27.3618 33.2574 25.2345 32.9201 23.16C32.8797 22.8574 32.9034 22.5497 32.9895 22.2569C33.0757 21.964 33.2223 21.6925 33.4201 21.46C36.1801 27.8 36.0801 33.56 32.5801 36.06M18.7401 11.56C22.2401 9.06996 28.1801 10.51 33.9601 14.7C33.352 14.9351 32.6781 14.9351 32.0701 14.7C29.9935 13.8264 27.7324 13.4828 25.4901 13.7C25.8292 14.4942 25.883 15.3812 25.6424 16.2106C25.4018 17.04 24.8816 17.7605 24.1701 18.25C23.4373 18.7628 22.5645 19.0379 21.6701 19.0379C20.7756 19.0379 19.9029 18.7628 19.1701 18.25C18.3463 20.2134 18.0966 22.3703 18.4501 24.47C18.4891 24.7725 18.4649 25.0799 18.3788 25.3725C18.2927 25.6652 18.1467 25.9368 17.9501 26.17C15.1901 19.83 15.2901 14.07 18.7901 11.57M29.2301 7.19996C18.5301 4.99996 8.27007 12.13 7.33007 22.37C6.54007 30.81 12.6801 38.62 21.5101 40.37C32.2101 42.54 42.5101 35.44 43.4201 25.21C44.2001 16.8 38.0601 8.99996 29.2301 7.19996Z" fill="#69C6DD"/>
<path d="M19.5696 12C19.1404 12.293 18.7767 12.6719 18.5017 13.1128C18.2267 13.5538 18.0464 14.047 17.9721 14.5613C17.8978 15.0757 17.9312 15.5998 18.0702 16.1005C18.2093 16.6012 18.4508 17.0676 18.7796 17.47C19.0139 17.7466 19.2828 17.992 19.5796 18.2C20.1248 16.964 20.9916 15.8969 22.0896 15.11C23.2319 14.3131 24.5554 13.8147 25.9396 13.66C25.8078 13.3296 25.6294 13.0198 25.4096 12.74C24.7047 11.9093 23.7142 11.3726 22.6333 11.2356C21.5525 11.0987 20.4595 11.3714 19.5696 12Z" fill="#19B5DC"/>
<path d="M32.5 35.3801C32.9292 35.0871 33.2928 34.7082 33.5678 34.2672C33.8428 33.8263 34.0232 33.3331 34.0975 32.8187C34.1718 32.3044 34.1383 31.7803 33.9993 31.2796C33.8603 30.7788 33.6188 30.3125 33.29 29.9101C33.1122 29.6856 32.9073 29.4841 32.68 29.3101C32.1327 30.5753 31.2554 31.6702 30.14 32.4801C28.9734 33.2875 27.6214 33.7864 26.21 33.9301C26.3359 34.1834 26.4902 34.4216 26.67 34.6401C27.3719 35.472 28.3608 36.0099 29.4407 36.147C30.5205 36.284 31.6125 36.0103 32.5 35.3801Z" fill="#19B5DC"/>
<path d="M63.4895 12.89H58.4895V18.06H63.4895C65.2795 18.06 66.2994 17.19 66.2994 15.49C66.2994 13.79 65.2995 12.89 63.4895 12.89ZM63.1295 6.68997H58.4595V11.6H63.1295C64.8595 11.6 65.8295 10.77 65.8295 9.12997C65.8295 7.48997 64.8295 6.68997 63.1295 6.68997ZM67.3895 8.99997C67.4496 9.6745 67.2864 10.3501 66.9251 10.9228C66.5637 11.4956 66.0242 11.9337 65.3895 12.17C66.1617 12.338 66.8447 12.7849 67.3078 13.4252C67.7709 14.0655 67.9816 14.854 67.8995 15.64C67.8995 18.07 66.1695 19.42 63.5295 19.42H57.3595C57.0395 19.42 56.9395 19.32 56.9395 19.03V5.73997C56.9395 5.43997 57.0395 5.33997 57.3595 5.33997H63.3595C65.9295 5.33997 67.4295 6.60997 67.4295 8.94997" fill="#1D1D1B"/>
<path d="M79.9195 5.73997V6.28997C79.9195 6.58997 79.8095 6.68997 79.4995 6.68997H72.0595V11.6H78.5495C78.8595 11.6 78.9695 11.7 78.9695 12V12.55C78.9695 12.85 78.8595 12.95 78.5495 12.95H72.0595V18.06H79.7695C80.0695 18.06 80.1695 18.16 80.1695 18.46V19C80.1695 19.29 80.0695 19.39 79.7695 19.39H70.9395C70.6295 19.39 70.5195 19.29 70.5195 19V5.73997C70.5195 5.43997 70.6295 5.33997 70.9395 5.33997H79.4995C79.8095 5.33997 79.9195 5.43997 79.9195 5.73997Z" fill="#1D1D1B"/>
<path d="M88.0503 8.00003C87.8899 7.55923 87.7922 7.09804 87.7603 6.63003H87.6503C87.6199 7.09644 87.5291 7.55694 87.3803 8.00003L84.8403 14.1H90.5903L88.0503 8.00003ZM94.0003 19.41H93.3903C92.8803 19.41 92.7303 19.33 92.6303 19.06L91.0003 15.29H84.4203L82.8403 19.06C82.7303 19.33 82.5803 19.41 82.0803 19.41H81.5303C81.1903 19.41 81.1303 19.27 81.2303 19.04L86.8903 5.62003C87.0003 5.34003 87.1203 5.28003 87.4203 5.28003H88.0703C88.3703 5.28003 88.5003 5.34003 88.6003 5.60003L94.2603 19C94.3703 19.23 94.2603 19.37 93.9703 19.37" fill="#1D1D1B"/>
<path d="M101.43 18.36C104.21 18.36 105.57 16.93 105.57 14.64V5.73997C105.57 5.43997 105.67 5.33997 105.99 5.33997H106.69C107 5.33997 107.11 5.43997 107.11 5.73997V14.62C107.11 17.71 105.21 19.71 101.43 19.71C97.6502 19.71 95.7402 17.71 95.7402 14.62V5.73997C95.7402 5.43997 95.8502 5.33997 96.1702 5.33997H96.8602C97.1802 5.33997 97.2902 5.43997 97.2902 5.73997V14.64C97.2902 16.93 98.6402 18.36 101.43 18.36Z" fill="#1D1D1B"/>
<path d="M119.82 5.73997V6.28997C119.82 6.58997 119.72 6.68997 119.4 6.68997H115.14V19C115.14 19.29 115.03 19.39 114.71 19.39H114C113.68 19.39 113.57 19.29 113.57 19V6.68997H109.31C108.99 6.68997 108.88 6.58997 108.88 6.28997V5.73997C108.88 5.43997 108.99 5.33997 109.31 5.33997H119.4C119.72 5.33997 119.82 5.43997 119.82 5.73997Z" fill="#1D1D1B"/>
<path d="M133 5.73997L127.46 13.74V19C127.46 19.29 127.36 19.39 127.04 19.39H126.34C126.03 19.39 125.92 19.29 125.92 19V13.68L120.41 5.73997C120.28 5.51997 120.32 5.33997 120.64 5.33997H121.5C121.97 5.33997 122.12 5.33997 122.29 5.69997L126.72 12.22L131.16 5.69997C131.35 5.35997 131.47 5.33997 131.96 5.33997H132.76C133.08 5.33997 133.12 5.51997 133 5.73997Z" fill="#1D1D1B"/>
<path d="M70.9398 29.8V42.52C70.9398 43.02 70.7498 43.2 70.2198 43.2H69.1298C68.5998 43.2 68.4098 43.02 68.4098 42.52V36.52C68.4343 35.1874 68.6122 33.862 68.9398 32.57H68.7898C68.3202 33.8259 67.7202 35.0292 66.9998 36.16L64.9998 39.55C64.9388 39.7076 64.827 39.8403 64.6821 39.9272C64.5372 40.0141 64.3675 40.0503 64.1998 40.03H63.5498C63.0998 40.03 62.9798 39.95 62.7398 39.55L60.6698 36.14C59.9431 35.0174 59.3681 33.8035 58.9598 32.53H58.8098C59.119 33.841 59.2767 35.1831 59.2798 36.53V42.53C59.2798 43.03 59.1098 43.21 58.5598 43.21H57.5598C57.0298 43.21 56.8398 43.03 56.8398 42.53V29.8C56.8398 29.3 57.0298 29.13 57.5598 29.13H58.5598C59.1498 29.13 59.3198 29.22 59.5598 29.64L63.9498 37.07L68.3498 29.66C68.5998 29.22 68.7498 29.13 69.3498 29.13H70.3498C70.8798 29.13 71.0698 29.3 71.0698 29.8" fill="#1D1D1B"/>
<path d="M83.7199 29.8V30.8C83.7199 31.3 83.5499 31.47 82.9999 31.47H76.5199V34.94H81.9999C82.5499 34.94 82.7199 35.12 82.7199 35.62V36.62C82.7199 37.11 82.5499 37.29 81.9999 37.29H76.5199V40.94H83.2399C83.7699 40.94 83.9599 41.12 83.9599 41.61V42.61C83.9599 43.11 83.7699 43.29 83.2399 43.29H74.5999C74.0699 43.29 73.8799 43.11 73.8799 42.61V29.8C73.8799 29.3 74.0699 29.13 74.5999 29.13H82.9999C83.5499 29.13 83.7199 29.3 83.7199 29.8Z" fill="#1D1D1B"/>
<path d="M96.0004 29.8V30.8C96.0004 31.3 95.8304 31.47 95.2904 31.47H88.7504V34.94H94.2204C94.7704 34.94 94.9404 35.12 94.9404 35.62V36.62C94.9404 37.11 94.7704 37.29 94.2204 37.29H88.7504V40.94H95.4704C96.0004 40.94 96.1904 41.12 96.1904 41.61V42.61C96.1904 43.11 96.0004 43.29 95.4704 43.29H86.8304C86.3004 43.29 86.1104 43.11 86.1104 42.61V29.8C86.1104 29.3 86.3004 29.13 86.8304 29.13H95.2403C95.7803 29.13 95.9504 29.3 95.9504 29.8" fill="#1D1D1B"/>
<path d="M108.54 29.8V30.8C108.54 31.3 108.38 31.47 107.83 31.47H104.19V42.52C104.19 43.02 104 43.2 103.47 43.2H102.25C101.72 43.2 101.53 43.02 101.53 42.52V31.44H97.8997C97.3697 31.44 97.1797 31.27 97.1797 30.77V29.77C97.1797 29.27 97.3697 29.1 97.8997 29.1H107.83C108.38 29.1 108.54 29.27 108.54 29.77" fill="#1D1D1B"/>
<path d="M111 29.13H112.2C112.75 29.13 112.92 29.3 112.92 29.8V42.52C112.92 43.02 112.75 43.2 112.2 43.2H111C110.47 43.2 110.28 43.02 110.28 42.52V29.8C110.28 29.3 110.47 29.13 111 29.13Z" fill="#1D1D1B"/>
<path d="M127.64 29.8V42.52C127.64 43.02 127.45 43.2 126.92 43.2H125.72C125.58 43.2179 125.438 43.1954 125.31 43.1351C125.183 43.0749 125.075 42.9794 125 42.86L119.91 35.69C119.227 34.6232 118.619 33.5106 118.09 32.36H118C118.264 33.658 118.418 34.9761 118.46 36.3V42.52C118.46 43.02 118.29 43.2 117.74 43.2H116.62C116.09 43.2 115.9 43.02 115.9 42.52V29.8C115.9 29.3 116.09 29.13 116.62 29.13H117.83C117.966 29.1165 118.104 29.1379 118.23 29.1921C118.356 29.2463 118.466 29.3316 118.55 29.44L123.61 36.58C124.321 37.6597 124.927 38.8049 125.42 40H125.55C125.277 38.683 125.119 37.3445 125.08 36V29.8C125.08 29.3 125.25 29.13 125.8 29.13H126.92C127.45 29.13 127.64 29.3 127.64 29.8Z" fill="#1D1D1B"/>
<path d="M142.22 36.16V38.82C142.22 41.49 140.06 43.47 136.22 43.47C132.38 43.47 130.22 41.47 130.22 38.32V34C130.22 30.83 132.38 28.85 136.22 28.85C139.32 28.85 141.16 30.02 141.96 32.16C142.13 32.63 141.96 32.85 141.52 33.03L140.36 33.41C139.85 33.59 139.64 33.49 139.45 32.99C138.96 31.78 137.97 31.17 136.22 31.17C134.02 31.17 132.81 32.17 132.81 33.98V38.34C132.81 40.17 134.04 41.16 136.22 41.16C138.4 41.16 139.62 40.16 139.62 38.84V37.77H136.45C135.92 37.77 135.73 37.59 135.73 37.07V36.16C135.73 35.65 135.92 35.49 136.45 35.49H141.52C142.07 35.49 142.24 35.65 142.24 36.16" fill="#1D1D1B"/>
<path d="M149.8 28.85C152.8 28.85 154.34 29.85 155.35 31.85C155.59 32.31 155.46 32.54 154.95 32.76L153.79 33.24C153.33 33.44 153.12 33.36 152.86 32.9C152.586 32.3394 152.144 31.8783 151.595 31.5807C151.047 31.2832 150.419 31.1641 149.8 31.24C147.73 31.24 146.74 31.83 146.74 33.06C146.74 34.49 148.47 34.74 150.39 34.94C152.88 35.2 155.74 35.82 155.74 39.13C155.74 41.76 153.6 43.5 149.74 43.5C146.46 43.5 144.81 42.36 143.95 40.22C143.76 39.72 143.88 39.5 144.39 39.34L145.53 38.95C146.04 38.79 146.25 38.89 146.46 39.36C146.754 39.9651 147.225 40.4664 147.811 40.7969C148.397 41.1274 149.07 41.2715 149.74 41.21C151.93 41.21 153.09 40.57 153.09 39.14C153.09 37.71 151.55 37.48 149.76 37.3C147.18 37 144 36.6 144 33.13C144 30.61 146 28.85 149.79 28.85" fill="#1D1D1B"/>
</svg>
