<svg width="19" height="22" viewBox="0 0 19 22" fill="none" xmlns="http://www.w3.org/2000/svg">
<path d="M12.75 21.5C11.5634 21.5 10.4033 21.1481 9.41656 20.4889C8.42986 19.8295 7.66089 18.8925 7.20676 17.7961C6.75264 16.6998 6.63376 15.4933 6.86529 14.3295C7.09681 13.1656 7.66824 12.0965 8.50734 11.2573C9.34651 10.4182 10.4156 9.84681 11.5795 9.61529C12.7433 9.38376 13.9498 9.50264 15.0461 9.95676C16.1425 10.4109 17.0795 11.1799 17.7389 12.1666C18.3981 13.1533 18.75 14.3134 18.75 15.5C18.75 17.0913 18.1178 18.6175 16.9927 19.7427C15.8675 20.8678 14.3413 21.5 12.75 21.5ZM12.75 11C11.86 11 10.99 11.2639 10.25 11.7584C9.50994 12.2529 8.93319 12.9556 8.59254 13.7779C8.25196 14.6002 8.16286 15.505 8.33649 16.3779C8.51011 17.2508 8.93866 18.0526 9.56806 18.682C10.1974 19.3114 10.9992 19.7399 11.8721 19.9135C12.745 20.0872 13.6498 19.9981 14.4721 19.6575C15.2944 19.3169 15.9971 18.7401 16.4916 18.0001C16.9861 17.26 17.25 16.39 17.25 15.5C17.25 14.3065 16.7759 13.162 15.932 12.3181C15.0881 11.4741 13.9435 11 12.75 11Z" fill="white"/>
<path d="M13.9425 17.75L12 15.8075V12.5H13.5V15.1925L15 16.6925L13.9425 17.75Z" fill="white"/>
<path d="M18 3.5C18 3.10218 17.842 2.72065 17.5606 2.43934C17.2793 2.15803 16.8978 2 16.5 2H13.5V0.5H12V2H6V0.5H4.5V2H1.5C1.10218 2 0.720645 2.15803 0.439343 2.43934C0.158033 2.72065 0 3.10218 0 3.5V18.5C0 18.8978 0.158033 19.2793 0.439343 19.5606C0.720645 19.842 1.10218 20 1.5 20H4.5V18.5H1.5V3.5H4.5V5H6V3.5H12V5H13.5V3.5H16.5V8H18V3.5Z" fill="white"/>
</svg>
