<svg width="30" height="30" viewBox="0 0 30 30" fill="none" xmlns="http://www.w3.org/2000/svg">
<path d="M28.1757 8.025C28.0272 7.43176 27.7248 6.88821 27.299 6.44926C26.8732 6.0103 26.3392 5.69148 25.7507 5.525C23.6007 5 15.0007 5 15.0007 5C15.0007 5 6.40071 5 4.25071 5.575C3.66227 5.74148 3.12819 6.0603 2.7024 6.49926C2.27661 6.93821 1.9742 7.48176 1.82571 8.075C1.43223 10.2569 1.23976 12.4704 1.25071 14.6875C1.23669 16.9213 1.42917 19.1516 1.82571 21.35C1.98941 21.9248 2.2986 22.4477 2.72339 22.8681C3.14819 23.2885 3.67424 23.5923 4.25071 23.75C6.40071 24.325 15.0007 24.325 15.0007 24.325C15.0007 24.325 23.6007 24.325 25.7507 23.75C26.3392 23.5835 26.8732 23.2647 27.299 22.8257C27.7248 22.3868 28.0272 21.8432 28.1757 21.25C28.5662 19.0845 28.7586 16.8879 28.7507 14.6875C28.7647 12.4537 28.5723 10.2234 28.1757 8.025Z" stroke="white" stroke-width="2" stroke-linecap="round" stroke-linejoin="round"/>
<path d="M12.1875 18.7746L19.375 14.6871L12.1875 10.5996V18.7746Z" stroke="white" stroke-width="2" stroke-linecap="round" stroke-linejoin="round"/>
</svg>
